<svg width="18" height="18" fill="none" xmlns="http://www.w3.org/2000/svg"><path fill-rule="evenodd" clip-rule="evenodd" d="M5.625 3.938a2.25 2.25 0 0 1 2.25-2.25h2.25a2.25 2.25 0 0 1 2.25 2.25v.153c.7.064 1.393.148 2.08.25 1.091.164 1.857 1.113 1.857 2.188v2.275c0 .909-.55 1.764-1.452 2.064a18.544 18.544 0 0 1-5.86.944c-2.047 0-4.017-.331-5.86-.944-.902-.3-1.453-1.155-1.453-2.064V6.53c0-1.075.767-2.024 1.857-2.187a36.61 36.61 0 0 1 2.081-.25v-.154Zm5.625 0v.068a37.115 37.115 0 0 0-4.5 0v-.069c0-.62.504-1.124 1.125-1.124h2.25c.621 0 1.125.503 1.125 1.124ZM9 10.125A.563.563 0 1 0 9 9a.563.563 0 0 0 0 1.125Z" fill="#FAFAFA"/><path d="M2.25 13.8v-2.097c.167.092.346.17.535.233A19.668 19.668 0 0 0 9 12.938c2.169 0 4.26-.352 6.215-1.002.19-.063.368-.141.535-.233V13.8c0 1.089-.785 2.046-1.892 2.193a36.9 36.9 0 0 1-9.716 0C3.035 15.846 2.25 14.889 2.25 13.8Z" fill="#FAFAFA"/></svg>