<svg width="18" height="18" fill="none" xmlns="http://www.w3.org/2000/svg"><path fill-rule="evenodd" clip-rule="evenodd" d="M2.25 4.5A2.25 2.25 0 0 1 4.5 2.25h1.688a2.25 2.25 0 0 1 2.25 2.25v1.688a2.25 2.25 0 0 1-2.25 2.25H4.5a2.25 2.25 0 0 1-2.25-2.25V4.5Zm7.313 0a2.25 2.25 0 0 1 2.25-2.25H13.5a2.25 2.25 0 0 1 2.25 2.25v1.688a2.25 2.25 0 0 1-2.25 2.25h-1.688a2.25 2.25 0 0 1-2.25-2.25V4.5ZM2.25 11.813a2.25 2.25 0 0 1 2.25-2.25h1.688a2.25 2.25 0 0 1 2.25 2.25V13.5a2.25 2.25 0 0 1-2.25 2.25H4.5a2.25 2.25 0 0 1-2.25-2.25v-1.688Zm7.313 0a2.25 2.25 0 0 1 2.25-2.25H13.5a2.25 2.25 0 0 1 2.25 2.25V13.5a2.25 2.25 0 0 1-2.25 2.25h-1.688a2.25 2.25 0 0 1-2.25-2.25v-1.688Z" fill="#FAFAFA"/></svg>