<svg width="18" height="18" fill="none" xmlns="http://www.w3.org/2000/svg"><path fill-rule="evenodd" clip-rule="evenodd" d="M5.625 2.813c-.621 0-1.125.503-1.125 1.124v10.126c0 .62.504 1.124 1.125 1.124h4.5c.621 0 1.125-.503 1.125-1.124V11.25a.562.562 0 1 1 1.125 0v2.813a2.25 2.25 0 0 1-2.25 2.25h-4.5a2.25 2.25 0 0 1-2.25-2.25V3.937a2.25 2.25 0 0 1 2.25-2.25h4.5a2.25 2.25 0 0 1 2.25 2.25V6.75a.562.562 0 1 1-1.125 0V3.937c0-.62-.504-1.124-1.125-1.124h-4.5Zm3.773 3.54c.22.219.22.575 0 .795l-1.29 1.29h8.204a.562.562 0 1 1 0 1.124H8.108l1.29 1.29a.562.562 0 1 1-.796.796l-2.25-2.25a.563.563 0 0 1 0-.796l2.25-2.25c.22-.22.576-.22.796 0Z" fill="#F1F5F9"/></svg>