<svg width="121" height="25" fill="none" xmlns="http://www.w3.org/2000/svg"><path d="M23.81 8.014h-8.067V0H8.012A8.011 8.011 0 0 1 0 8.014v7.734h8.012v8.014h7.731c0-4.427 3.642-8.014 8.068-8.014V8.014Z" fill="url(#a)"/><path d="M37.516 20.4v-12H33.81V6.096h9.984V8.4h-3.647v12h-2.63ZM44.033 20.4V9.955h2.362v2.323l-.192-.345c.243-.78.62-1.325 1.132-1.632.525-.307 1.152-.46 1.882-.46h.614v2.226h-.902c-.717 0-1.293.224-1.728.672-.435.435-.653 1.05-.653 1.843V20.4h-2.515ZM54.94 20.63c-.807 0-1.511-.179-2.113-.537a3.593 3.593 0 0 1-1.363-1.498c-.307-.64-.46-1.389-.46-2.246V9.955h2.514v6.183c0 .435.084.819.25 1.152.18.32.429.576.749.768.332.179.704.268 1.113.268.41 0 .775-.09 1.095-.268.32-.192.57-.455.748-.788.18-.332.27-.73.27-1.19V9.955h2.514V20.4h-2.38v-2.054l.21.364c-.242.64-.646 1.12-1.209 1.44-.55.32-1.197.48-1.939.48ZM67.914 20.63a6.396 6.396 0 0 1-2.535-.499 6.072 6.072 0 0 1-1.996-1.382 5.615 5.615 0 0 1-1.21-2.093l2.17-.94c.345.819.844 1.465 1.497 1.938.653.461 1.39.692 2.208.692.461 0 .858-.07 1.19-.212.346-.153.609-.358.788-.614.192-.256.288-.563.288-.921 0-.423-.128-.768-.384-1.037-.243-.282-.615-.5-1.114-.653l-2.745-.883c-1.114-.346-1.952-.864-2.515-1.556-.564-.69-.845-1.504-.845-2.438 0-.82.198-1.542.595-2.17a4.09 4.09 0 0 1 1.69-1.459c.73-.358 1.561-.537 2.496-.537.857 0 1.644.153 2.361.46.717.295 1.331.71 1.843 1.249a4.954 4.954 0 0 1 1.172 1.862l-2.15.96c-.282-.717-.705-1.267-1.268-1.651-.563-.397-1.216-.595-1.959-.595-.435 0-.819.076-1.151.23-.333.14-.596.346-.788.614-.179.256-.269.564-.269.922 0 .397.129.749.385 1.056.255.294.646.525 1.17.691l2.631.826c1.14.37 1.99.883 2.554 1.536.576.652.864 1.459.864 2.419 0 .82-.212 1.542-.634 2.17-.422.627-1.005 1.12-1.747 1.478-.743.358-1.606.538-2.592.538ZM80.057 20.63c-1.037 0-1.971-.236-2.803-.71a5.368 5.368 0 0 1-1.94-1.958c-.473-.832-.71-1.767-.71-2.803 0-1.037.237-1.965.71-2.785a5.221 5.221 0 0 1 1.94-1.939c.832-.473 1.766-.71 2.803-.71a5.3 5.3 0 0 1 2.074.403c.64.256 1.19.614 1.65 1.075.474.448.814.986 1.018 1.613l-2.208.96a2.593 2.593 0 0 0-.979-1.267 2.607 2.607 0 0 0-1.555-.48c-.55 0-1.043.134-1.478.403a2.81 2.81 0 0 0-.999 1.114c-.243.473-.364 1.017-.364 1.632 0 .614.121 1.158.364 1.632.243.473.576.845.999 1.113.435.27.928.404 1.478.404.602 0 1.126-.16 1.575-.48.447-.32.767-.75.96-1.287l2.207.998a4.29 4.29 0 0 1-.998 1.594c-.46.46-1.011.826-1.651 1.095a5.584 5.584 0 0 1-2.093.384ZM89.838 20.63c-.73 0-1.363-.121-1.9-.364-.538-.243-.954-.59-1.248-1.037-.295-.46-.442-.992-.442-1.594 0-.576.128-1.088.384-1.536.256-.46.653-.845 1.19-1.152.538-.307 1.216-.524 2.036-.652l3.417-.557v1.92l-2.937.499c-.5.09-.87.25-1.114.48-.243.23-.365.531-.365.902 0 .359.135.647.404.864.281.205.627.308 1.036.308.525 0 .986-.11 1.383-.327.41-.23.723-.544.94-.94.23-.397.346-.833.346-1.306V13.45c0-.448-.18-.82-.538-1.114-.345-.307-.806-.46-1.382-.46-.538 0-1.017.147-1.44.44-.41.282-.71.66-.902 1.134l-2.055-.999c.205-.55.525-1.024.96-1.42.448-.41.973-.73 1.575-.96a5.431 5.431 0 0 1 1.958-.346c.858 0 1.613.16 2.266.48.653.307 1.158.742 1.517 1.306.37.55.556 1.196.556 1.939v6.95h-2.38v-1.785l.537-.039a4.375 4.375 0 0 1-.96 1.133 4.332 4.332 0 0 1-1.267.691c-.474.154-.998.23-1.575.23ZM97.808 24.24V9.955h2.362v2.074l-.23-.518a3.607 3.607 0 0 1 1.458-1.306c.615-.32 1.325-.48 2.132-.48.985 0 1.875.243 2.668.73a5.313 5.313 0 0 1 1.882 1.958c.474.82.71 1.74.71 2.765 0 1.01-.23 1.932-.691 2.764a5.276 5.276 0 0 1-1.881 1.978c-.794.474-1.696.71-2.708.71a4.944 4.944 0 0 1-2.092-.441 3.705 3.705 0 0 1-1.498-1.306l.403-.499v5.856h-2.515Zm5.414-5.913c.576 0 1.088-.135 1.536-.404a2.72 2.72 0 0 0 1.037-1.113c.256-.474.384-1.018.384-1.632 0-.615-.128-1.152-.384-1.613a2.72 2.72 0 0 0-1.037-1.114 2.825 2.825 0 0 0-1.536-.422c-.55 0-1.049.134-1.497.403a2.87 2.87 0 0 0-1.037 1.133c-.243.474-.365 1.011-.365 1.613 0 .614.122 1.158.365 1.632.256.473.602.845 1.037 1.113.448.27.947.404 1.497.404ZM115.662 20.63c-1.076 0-2.016-.243-2.823-.73a5.083 5.083 0 0 1-1.881-1.977c-.448-.832-.672-1.753-.672-2.764 0-1.05.224-1.978.672-2.785a5.204 5.204 0 0 1 1.862-1.939c.794-.473 1.677-.71 2.65-.71.819 0 1.536.134 2.15.403.627.269 1.158.64 1.594 1.114.435.473.768 1.017.998 1.632a5.44 5.44 0 0 1 .346 1.958c0 .18-.013.365-.039.557a1.835 1.835 0 0 1-.096.5h-8.064v-1.92h6.643l-1.19.902c.115-.59.083-1.114-.096-1.575a2.18 2.18 0 0 0-.845-1.094c-.384-.27-.851-.403-1.401-.403-.525 0-.992.134-1.402.403-.41.256-.723.64-.941 1.152-.205.499-.281 1.107-.23 1.824-.051.64.032 1.21.249 1.709.231.486.564.863.999 1.132.448.27.96.404 1.536.404.576 0 1.062-.122 1.459-.365.41-.244.73-.57.96-.98l2.035.999c-.205.5-.525.94-.96 1.325a4.77 4.77 0 0 1-1.555.902 5.615 5.615 0 0 1-1.958.327Z" fill="#FAFAFA"/><defs><linearGradient id="a" x1="14.5" y1="5" x2="21" y2="16" gradientUnits="userSpaceOnUse"><stop stop-color="#E9D5FF"/><stop offset="1" stop-color="#D9F99D"/></linearGradient></defs></svg>